<?xml version="1.0" standalone="no"?>
<!DOCTYPE svg PUBLIC "-//W3C//DTD SVG 20010904//EN"
 "http://www.w3.org/TR/2001/REC-SVG-20010904/DTD/svg10.dtd">
<svg version="1.0" xmlns="http://www.w3.org/2000/svg"
 width="124.000000pt" height="124.000000pt" viewBox="0 0 124.000000 124.000000"
 preserveAspectRatio="xMidYMid meet">
<metadata>
Created by potrace 1.16, written by Peter Selinger 2001-2019
</metadata>
<g transform="translate(0.000000,124.000000) scale(0.009687,-0.009687)"
fill="#000000" stroke="none">

<!-- PHP -->
<path d="M4504 9515 c-3 -8 -3 -31 0 -52 10 -70 24 -148 31 -175 l7 -26 -44 9
c-23 6 -46 13 -49 17 -3 4 -16 45 -29 90 -26 92 -54 140 -65 110 -4 -9 -1 -33
5 -55 25 -84 51 -198 65 -290 6 -39 29 -73 41 -60 8 8 8 58 0 95 -9 36 -10 36
48 21 40 -10 44 -14 50 -49 6 -42 28 -65 51 -56 21 8 19 47 -9 168 -13 56 -29
134 -36 171 -12 64 -29 97 -51 97 -5 0 -12 -7 -15 -15z"/>
<path d="M4754 9496 c-18 -8 -34 -19 -38 -24 -3 -6 1 -43 8 -84 20 -99 56
-330 56 -356 0 -31 28 -56 47 -41 15 13 12 73 -7 147 l-8 32 41 0 c101 1 187
84 187 181 0 56 -21 86 -86 124 -57 33 -152 43 -200 21z m162 -77 c73 -45 79
-80 25 -141 -23 -26 -38 -33 -84 -38 l-55 -6 -12 81 c-6 44 -14 88 -17 98 -10
39 82 44 143 6z"/>
<path d="M4095 9471 c-27 -5 -30 -10 -33 -50 -2 -30 8 -74 32 -145 20 -57 43
-145 51 -197 21 -123 23 -129 45 -129 32 0 42 33 30 97 -15 85 -14 93 15 93
43 0 83 27 111 76 50 85 30 167 -55 231 -38 30 -49 33 -104 32 -34 -1 -75 -4
-92 -8z m158 -88 c66 -50 56 -138 -20 -169 -19 -9 -37 -14 -38 -12 -6 5 -53
136 -64 173 l-9 35 47 0 c37 0 56 -6 84 -27z"/>
<!-- JS -->
<path d="M5941 9136 c-10 -12 -10 -23 -2 -48 42 -127 63 -232 67 -338 5 -120
-2 -151 -38 -174 -19 -12 -59 12 -86 52 -13 20 -12 22 11 33 55 25 37 77 -22
64 -32 -7 -71 -47 -71 -72 0 -25 39 -90 69 -115 64 -55 143 -41 186 32 17 31
20 51 19 160 -1 107 -6 143 -33 244 -17 66 -37 131 -44 145 -14 31 -39 38 -56
17z"/>
<path d="M6194 8993 c-12 -2 -38 -18 -59 -36 -75 -66 -52 -153 52 -192 93 -35
100 -65 27 -116 -24 -16 -44 -37 -44 -45 0 -42 78 -17 126 39 17 20 24 41 24
71 0 51 -13 65 -90 97 -97 40 -109 68 -52 116 35 30 56 29 80 -2 23 -29 52
-33 52 -6 0 18 -45 71 -61 71 -4 0 -13 2 -21 4 -7 2 -23 1 -34 -1z"/>
<!-- HTML -->
<path d="M8776 8584 c-3 -9 -6 -23 -7 -32 0 -9 -10 -44 -23 -77 l-23 -60 -22
68 c-36 107 -74 104 -103 -9 -57 -214 -62 -280 -21 -272 13 2 23 23 35 78 10
41 22 89 27 105 l8 30 21 -47 c17 -39 26 -48 46 -48 14 0 32 9 41 23 15 21 15
17 9 -58 -6 -79 4 -135 25 -135 27 0 39 60 46 232 4 97 4 186 0 197 -8 25 -50
29 -59 5z"/>
<path d="M8270 8563 c-90 -17 -50 -76 43 -66 l47 6 1 -39 c6 -172 15 -247 31
-258 14 -8 22 -7 35 7 16 16 18 35 15 152 l-2 134 61 3 c69 3 94 23 70 52 -11
13 -36 16 -145 15 -72 -1 -142 -4 -156 -6z"/>
<path d="M7936 8544 c-3 -9 -6 -94 -6 -189 0 -166 1 -175 21 -185 37 -20 49 3
49 91 l0 79 65 0 65 0 0 -74 c0 -54 4 -77 15 -86 10 -8 19 -9 24 -4 14 14 1
386 -13 381 -6 -2 -14 -40 -17 -86 -4 -45 -8 -83 -10 -85 -2 -2 -31 -6 -64
-10 l-60 -6 3 80 c3 54 0 85 -8 95 -16 20 -56 19 -64 -1z"/>
<path d="M8886 8514 c-3 -9 -6 -50 -7 -92 0 -42 -4 -113 -8 -157 -12 -120 -16
-116 152 -113 l142 3 0 25 c0 25 -1 25 -116 34 l-117 9 6 128 c4 109 2 132
-12 154 -19 29 -31 32 -40 9z"/>
<!-- Css -->
<path d="M4104 8241 c-78 -22 -122 -50 -177 -111 -78 -86 -76 -188 4 -275 45
-49 128 -81 182 -71 58 11 124 63 104 82 -3 3 -35 -2 -72 -11 -62 -16 -69 -16
-111 0 -66 25 -98 73 -99 146 0 54 3 61 40 99 51 54 116 86 197 100 56 10 70
9 97 -5 35 -18 51 -13 51 15 0 48 -105 63 -216 31z"/>
<path d="M4321 8129 c-56 -52 -47 -96 30 -160 83 -69 109 -96 109 -113 0 -21
-51 -46 -111 -53 -27 -3 -57 -12 -66 -19 -17 -13 -17 -15 1 -29 26 -20 51 -19
129 5 65 20 107 54 107 87 0 38 -38 89 -102 136 -37 29 -71 60 -74 71 -10 30
23 48 74 41 38 -6 42 -4 42 14 0 43 -98 58 -139 20z"/>
<path d="M4552 8094 c-36 -25 -28 -67 27 -153 54 -85 64 -110 55 -135 -9 -22
-56 -46 -92 -46 -39 0 -60 -24 -41 -46 29 -35 147 3 174 56 27 53 19 90 -40
185 -30 48 -55 91 -55 96 0 5 11 9 24 9 17 0 38 -15 68 -50 48 -55 68 -63 68
-25 0 16 -17 42 -48 75 -40 41 -54 50 -83 50 -19 0 -45 -7 -57 -16z"/>
<!-- Чел и компы -->
<path d="M5359 8218 c-1 -7 0 -106 1 -220 2 -206 2 -206 -24 -251 -31 -53 -34
-123 -8 -182 18 -39 18 -40 -3 -56 -13 -11 -31 -15 -48 -12 -20 4 -35 -1 -51
-16 -14 -13 -29 -19 -39 -15 -11 4 -19 0 -23 -11 -5 -13 -16 0 -41 53 -42 89
-78 127 -134 142 -82 22 -127 50 -160 102 -17 27 -37 47 -43 45 -18 -6 -63
-104 -76 -166 -7 -32 -10 -104 -8 -164 3 -101 2 -107 -17 -107 -70 -1 -1317
98 -1323 105 -3 3 -7 40 -9 82 -2 42 -4 78 -6 79 -6 6 -701 32 -716 27 -9 -3
-147 -61 -307 -129 -160 -68 -303 -128 -317 -133 l-25 -10 -7 -263 c-4 -145
-4 -429 -1 -632 l6 -370 -63 -60 c-34 -34 -84 -81 -112 -106 -27 -25 -126
-115 -220 -199 -93 -85 -190 -172 -215 -195 -44 -41 -566 -514 -800 -725 -208
-188 -270 -248 -270 -260 0 -17 51 -36 145 -55 74 -14 122 -21 325 -46 41 -5
147 -18 235 -30 88 -11 176 -22 195 -25 19 -2 107 -13 195 -24 88 -11 212 -27
275 -35 63 -8 176 -22 250 -30 74 -9 164 -21 200 -26 92 -13 205 -27 355 -45
72 -8 166 -20 210 -26 44 -6 112 -14 150 -19 39 -5 106 -14 150 -20 71 -9 257
-32 485 -60 236 -29 482 -60 635 -80 39 -5 129 -16 200 -25 72 -8 162 -20 200
-25 39 -5 96 -12 127 -16 53 -6 57 -8 53 -28 -70 -294 -90 -512 -82 -871 3
-137 13 -306 22 -375 9 -69 20 -161 25 -205 26 -232 24 -225 73 -255 24 -15
50 -20 102 -20 76 0 480 -26 560 -36 79 -10 909 -5 1014 6 104 11 124 22 136
73 4 18 10 165 14 327 l6 294 25 6 c70 15 181 387 168 563 -3 46 -9 64 -26 78
-19 15 -22 27 -22 100 l0 82 53 -6 c28 -3 108 -13 177 -22 69 -8 159 -20 200
-25 41 -5 167 -21 280 -35 113 -15 239 -30 280 -35 41 -5 237 -30 435 -55 198
-25 394 -50 435 -55 41 -5 167 -21 280 -35 113 -14 239 -30 280 -35 41 -5 111
-14 155 -20 44 -6 118 -15 165 -21 47 -5 173 -21 280 -35 685 -88 772 -95 837
-71 18 7 90 68 160 136 431 418 392 381 933 901 151 145 329 317 395 381 66
63 164 158 218 209 53 52 96 98 94 104 -10 30 -113 56 -352 86 -88 11 -195 25
-237 30 -43 6 -114 15 -158 20 -44 6 -115 15 -157 20 -43 6 -154 19 -248 30
-93 12 -178 23 -187 26 -17 5 -18 56 -20 789 -2 506 -7 787 -13 794 -11 11
-617 46 -679 39 -23 -3 -188 -68 -368 -144 l-328 -139 0 -583 0 -584 -37 6
c-21 3 -68 8 -105 12 -66 6 -66 6 -73 41 -3 19 -5 36 -3 37 2 2 20 13 41 25
37 23 52 49 20 36 -10 -4 -31 -12 -48 -17 -48 -17 -55 -27 -53 -72 l3 -41 -80
-21 c-103 -28 -114 -33 -126 -55 -19 -36 11 -68 116 -124 92 -49 110 -67 125
-121 24 -86 -27 -167 -165 -261 -83 -56 -97 -75 -103 -132 -4 -50 -4 -51 56
-113 38 -40 73 -89 92 -131 28 -59 31 -71 21 -99 -22 -62 -97 -118 -124 -92
-3 3 3 20 14 37 23 38 26 141 5 190 -7 18 -33 50 -57 72 -48 45 -83 55 -243
75 -127 16 -154 32 -176 106 -10 33 -9 50 2 90 22 80 83 109 292 139 129 19
177 37 211 77 52 62 18 109 -106 147 -163 49 -208 81 -216 155 -5 39 -2 48 22
71 26 26 30 27 103 22 42 -4 101 -9 130 -13 38 -5 64 -2 97 10 50 19 60 38 50
97 l-7 39 74 -6 c67 -5 72 -4 54 10 -11 9 -23 16 -27 16 -4 0 -4 371 -1 824 5
802 5 824 -14 834 -10 5 -80 15 -154 21 -74 6 -252 22 -395 35 -143 14 -362
32 -487 42 -212 17 -227 19 -213 35 14 15 12 20 -20 59 -19 23 -38 54 -41 69
-11 46 -33 61 -85 61 -40 0 -55 -6 -83 -31 -37 -32 -58 -83 -50 -124 4 -23 2
-25 -38 -25 -71 0 -73 9 -24 77 25 34 50 64 55 68 16 9 13 52 -4 59 -24 9 -43
-3 -84 -55 -22 -27 -41 -46 -44 -42 -2 4 -10 25 -16 45 -12 36 -40 56 -61 43
-18 -11 -11 -70 15 -121 31 -61 31 -64 -2 -59 -16 2 -54 7 -85 10 l-58 6 28
24 c15 13 29 20 32 16 3 -4 14 -11 24 -14 18 -7 18 -4 11 50 -4 32 -7 70 -6
86 2 32 -22 46 -50 29 -10 -7 -31 -12 -47 -12 -62 0 -97 -64 -74 -138 l11 -35
-77 6 c-42 4 -126 11 -187 17 -304 28 -378 31 -385 20 -4 -7 -8 -233 -9 -503
0 -271 -4 -583 -7 -694 l-7 -203 -48 0 -49 0 0 70 c0 64 2 71 26 86 31 21 29
58 -3 62 l-23 3 -1 222 c-1 579 -17 1599 -25 1606 -9 9 -150 20 -819 66 -198
14 -381 28 -407 30 -35 4 -48 2 -49 -7z m134 -351 c-4 -6 -1 -7 6 -2 8 4 28
-7 53 -31 48 -47 70 -87 61 -110 -4 -12 -3 -15 5 -10 7 4 13 4 13 -1 8 -47 10
-66 12 -116 1 -42 -2 -60 -13 -67 -10 -6 -11 -10 -2 -10 15 0 16 -46 1 -55 -6
-4 -8 -13 -5 -20 2 -7 2 -16 -2 -19 -3 -4 -7 -12 -8 -19 -7 -47 -26 -97 -36
-91 -6 4 -8 -1 -3 -15 3 -12 3 -21 -2 -20 -4 1 -11 0 -15 -1 -9 -3 -25 -7 -35
-9 -3 0 2 -11 13 -23 15 -17 16 -20 3 -16 -9 4 -16 1 -16 -8 0 -7 5 -10 10 -7
11 7 4 -7 -26 -50 -10 -16 -22 -26 -25 -23 -3 4 5 17 18 31 13 14 20 25 16 25
-5 0 -17 -11 -28 -26 -11 -14 -23 -23 -26 -20 -3 3 3 15 13 26 18 20 18 20 -3
17 -34 -5 -37 -15 -14 -47 25 -33 29 -48 8 -31 -11 9 -14 8 -12 -6 0 -10 -4
-17 -11 -16 -7 2 -10 -4 -6 -13 5 -13 2 -15 -14 -10 -13 4 -26 -1 -38 -14 -15
-16 -15 -20 -3 -15 21 8 29 -18 16 -55 -6 -18 -8 -55 -4 -88 10 -82 12 -94 25
-126 7 -16 9 -36 7 -43 -3 -8 -1 -11 4 -8 6 3 10 0 10 -8 0 -8 9 -22 20 -32
11 -10 17 -22 14 -26 -3 -5 1 -9 8 -9 10 0 10 -2 -1 -9 -16 -10 -8 -41 10 -41
8 0 8 4 -1 15 -8 10 -9 15 -2 15 14 0 35 -38 27 -50 -3 -5 -1 -11 4 -14 5 -4
8 5 6 19 -2 21 0 23 12 13 8 -6 11 -18 8 -26 -3 -7 4 -27 16 -43 11 -16 17
-34 13 -40 -4 -8 -3 -9 5 -5 6 4 20 2 29 -5 9 -7 5 0 -9 16 -34 38 -53 75 -39
75 5 0 10 -4 10 -10 0 -5 27 -45 60 -89 43 -55 59 -84 54 -97 -4 -14 -3 -15 4
-5 7 10 11 11 17 1 5 -8 1 -18 -10 -27 -11 -7 -14 -13 -9 -13 6 0 15 5 22 12
7 7 12 9 12 5 0 -16 3 -23 20 -47 28 -40 44 -98 31 -114 -8 -10 -8 -20 -1 -37
10 -23 10 -23 6 -1 -2 12 0 22 4 22 12 0 18 -44 18 -120 l1 -65 -15 49 c-18
58 -27 57 -12 -2 8 -33 8 -46 -3 -59 -10 -11 -10 -14 -1 -9 20 12 13 -7 -13
-37 -21 -23 -28 -26 -45 -17 -16 8 -18 8 -14 -4 4 -10 -3 -17 -20 -22 -14 -3
-26 -11 -26 -16 0 -6 16 -1 35 11 19 11 35 17 35 12 0 -5 -13 -14 -30 -21 -16
-7 -30 -16 -30 -21 0 -5 -5 -9 -11 -9 -5 0 -7 5 -4 10 3 6 1 10 -4 10 -6 0
-11 -6 -11 -14 0 -20 -42 -28 -60 -11 -19 18 -50 20 -50 4 0 -6 6 -9 13 -6 6
2 18 -2 25 -10 12 -12 10 -13 -12 -7 -16 4 -26 2 -26 -4 0 -6 -9 -14 -20 -17
-11 -4 -31 -22 -44 -41 -12 -18 -26 -31 -29 -28 -3 4 -6 -2 -6 -12 -1 -11 -4
-58 -7 -105 -6 -77 -3 -96 20 -166 16 -48 55 -125 98 -194 103 -165 121 -208
126 -306 3 -54 1 -83 -6 -83 -6 0 -31 -29 -56 -64 -43 -60 -89 -106 -106 -106
-5 0 7 15 26 34 32 32 43 56 26 56 -4 0 -30 -14 -56 -30 -81 -52 -257 -80
-286 -45 -10 12 -7 13 22 5 18 -6 51 -10 73 -9 33 0 36 2 19 9 -12 5 -25 13
-29 19 -3 6 -28 20 -55 32 -30 13 -47 26 -44 33 3 7 -9 35 -25 62 -45 73 -50
127 -15 189 27 46 29 48 34 25 6 -23 8 -22 29 23 13 26 27 47 32 47 13 0 11
-9 -6 -26 -16 -16 -21 -84 -6 -84 5 0 14 -13 21 -30 13 -32 92 -90 122 -90 11
0 17 4 14 9 -3 4 6 13 19 19 13 6 27 23 31 37 14 57 -20 187 -81 304 -43 83
-65 158 -65 223 0 55 29 155 57 195 35 49 82 141 75 147 -3 4 5 10 18 13 25 7
25 7 -5 15 -25 6 -33 4 -46 -14 -19 -25 -50 -19 -43 9 3 12 -5 23 -26 35 -21
12 -30 13 -30 5 0 -7 -6 -5 -14 5 -7 10 -15 16 -18 13 -2 -3 -22 4 -44 15 -21
10 -35 19 -30 20 5 0 0 8 -11 18 -11 9 -23 34 -27 55 -6 31 -4 37 11 37 15 0
16 2 3 10 -10 6 -15 28 -16 71 -1 59 0 60 12 33 8 -16 12 -20 9 -8 -3 12 -1
32 4 45 9 22 10 22 10 -10 1 -19 4 -32 7 -28 4 3 3 28 -1 54 l-8 48 -9 -32
c-5 -18 -10 -33 -12 -33 -9 0 2 70 13 83 6 8 7 18 3 22 -4 5 2 5 12 1 19 -6
19 -6 3 12 -12 13 -14 21 -6 29 6 6 13 25 15 43 2 17 8 39 13 49 6 10 7 21 4
25 -3 3 -3 6 1 6 3 0 11 -10 17 -22 l10 -23 -6 23 c-3 12 -8 30 -11 41 -3 10
1 25 11 35 9 9 11 16 5 16 -6 0 -8 5 -4 12 4 6 9 23 10 37 1 14 7 71 12 126
11 118 10 157 -6 163 -7 2 -10 8 -6 13 3 5 1 9 -4 9 -5 0 -24 21 -42 47 -24
33 -29 45 -16 40 10 -4 15 -3 11 4 -4 5 -14 9 -23 8 -30 -3 -37 1 -22 12 12 8
10 9 -7 4 -14 -4 -35 2 -60 18 -21 13 -53 29 -70 36 -18 7 -30 18 -27 23 3 5
0 8 -8 6 -21 -5 -115 69 -146 116 -31 44 -65 116 -76 156 l-7 25 16 -25 16
-25 -7 25 c-3 14 -13 32 -20 41 -8 8 -14 32 -14 52 0 49 20 191 28 197 4 3 7
11 8 18 2 28 5 31 19 26 8 -4 12 -10 9 -15 -3 -5 -10 -6 -16 -3 -7 4 -8 2 -4
-5 4 -6 12 -9 17 -6 5 4 9 2 9 -2 0 -5 12 -16 28 -26 57 -35 57 -35 44 -50 -9
-11 -9 -14 3 -14 7 0 13 5 12 11 -1 5 8 11 21 12 12 1 21 -1 18 -3 -2 -3 4
-13 15 -24 10 -10 19 -27 19 -36 0 -15 2 -16 10 -3 6 10 3 21 -12 37 -12 13
-16 23 -10 23 7 0 12 -5 12 -11 0 -6 7 -8 16 -5 9 4 13 2 8 -5 -4 -7 -1 -10 7
-7 7 2 21 -2 30 -11 14 -11 16 -19 7 -35 -10 -18 -9 -19 4 -8 21 17 41 -8 41
-51 -1 -18 1 -26 4 -19 3 8 13 -2 24 -23 11 -20 17 -39 15 -43 -3 -5 0 -14 6
-22 8 -12 9 -11 4 4 -5 16 -4 17 9 6 8 -7 13 -16 10 -19 -2 -4 2 -8 8 -8 7 0
14 11 15 25 1 13 5 28 8 33 8 14 36 -11 30 -28 -3 -7 -1 -13 5 -13 6 0 7 -5 3
-11 -6 -10 11 -28 27 -29 14 0 16 54 3 79 -18 34 -18 38 4 43 13 4 18 -1 18
-18 0 -12 -4 -20 -8 -18 -13 8 -9 -5 9 -32 14 -22 15 -29 3 -47 -7 -12 -9 -19
-5 -14 10 8 45 -21 45 -37 0 -6 -5 -4 -10 4 -6 9 -10 10 -10 3 0 -6 5 -15 10
-18 19 -12 32 53 19 92 -5 13 -4 23 3 25 8 3 7 11 -1 27 -10 17 -10 26 0 37
17 21 29 17 29 -11 0 -14 9 -35 19 -47 11 -11 18 -25 15 -32 -2 -7 5 -12 17
-13 20 -2 21 -1 7 14 -15 14 -14 20 3 61 14 33 16 42 5 33 -12 -10 -13 -9 -9
9 4 13 -2 32 -15 49 -28 39 -52 114 -47 150 4 35 62 114 76 106 5 -4 6 0 3 8
-3 8 6 21 20 31 15 9 26 24 25 34 0 14 -2 14 -9 -3 -8 -16 -9 -14 -5 10 2 17
4 32 4 34 1 2 8 -2 16 -9 8 -7 12 -17 8 -23z m297 -627 c85 -5 250 -14 365
-20 116 -6 249 -16 298 -22 l87 -11 0 -147 0 -148 -57 -8 c-32 -5 -57 -13 -55
-19 2 -5 12 -10 22 -9 19 1 20 -7 20 -103 0 -85 3 -103 15 -103 12 0 15 18 15
105 0 98 1 105 20 105 19 0 20 -7 20 -152 l0 -153 -48 0 c-37 -1 -72 -13 -171
-64 -68 -34 -150 -80 -182 -102 -39 -26 -80 -44 -123 -53 l-65 -13 58 76 c70
92 171 241 171 253 0 4 10 7 23 5 21 -2 22 0 18 67 -2 38 -5 77 -6 85 -2 9 -4
28 -4 44 -2 54 -30 28 -81 -75 -47 -97 -55 -107 -138 -175 -48 -39 -88 -70
-90 -68 -3 3 29 137 34 143 1 2 14 -4 27 -13 31 -20 81 -16 85 6 2 12 -4 15
-25 12 -19 -3 -37 2 -53 15 -21 17 -25 29 -24 68 1 61 30 88 86 81 39 -5 46 1
26 21 -18 18 -59 15 -95 -8 l-32 -19 -3 26 c-2 14 -11 31 -20 37 -14 8 -24 5
-49 -19 -33 -31 -81 -126 -94 -183 -4 -18 -9 -31 -12 -28 -3 2 -11 56 -18 118
-15 127 -27 168 -50 168 -22 0 -50 -68 -87 -210 -17 -66 -34 -120 -38 -120 -4
0 -24 21 -45 46 l-38 46 -6 161 c-7 155 -6 163 14 187 38 46 72 94 94 138 13
25 28 42 39 42 9 0 87 -4 172 -10z m-674 -266 c29 -19 65 -51 79 -71 41 -61
34 -177 -25 -393 -11 -41 -27 -103 -36 -137 l-16 -62 -64 57 -63 57 3 75 c2
41 4 180 5 308 l1 233 31 -17 c17 -8 55 -31 85 -50z m1433 -609 c1 -38 -3 -57
-11 -59 -7 -2 -62 -9 -123 -15 -60 -7 -123 -14 -140 -17 -16 -3 11 13 60 34
50 21 117 55 150 75 33 20 60 36 61 37 0 0 2 -25 3 -55z m211 -411 l0 -76 -47
7 c-27 4 -115 13 -198 20 -82 6 -143 14 -135 18 57 22 136 36 195 34 65 -2 70
0 82 23 10 21 58 45 96 49 4 1 7 -33 7 -75z m-3120 10 c107 -8 239 -17 292
-21 l98 -6 -6 -86 c-4 -47 -8 -87 -8 -88 -1 -2 -34 -7 -73 -13 -139 -19 -233
-74 -233 -135 0 -13 12 -38 26 -55 130 -154 662 -160 737 -8 17 34 17 39 2 67
-19 37 -71 73 -144 98 l-53 18 6 90 c4 49 8 90 9 91 1 1 38 -2 82 -6 44 -5
145 -14 225 -20 80 -6 170 -13 200 -17 l55 -6 -90 -18 c-112 -21 -194 -52
-230 -85 -23 -21 -27 -31 -22 -61 8 -50 28 -66 83 -69 25 -1 48 -5 52 -8 3 -3
-8 -16 -24 -28 -82 -62 -119 -123 -94 -153 26 -31 104 -13 283 65 95 41 203
75 187 57 -3 -2 -39 -19 -80 -36 -74 -32 -207 -125 -235 -165 -41 -58 2 -67
108 -22 45 20 87 36 91 36 5 0 -8 -18 -27 -39 -47 -52 -69 -96 -65 -129 4 -37
31 -39 90 -7 l50 27 -7 -23 c-8 -26 -20 -38 -375 -354 -135 -120 -250 -227
-256 -239 -8 -13 -10 -48 -7 -94 8 -102 -13 -93 313 -138 207 -28 265 -37 269
-41 3 -1 -5 -13 -16 -26 -37 -41 -90 -131 -114 -194 -23 -60 -25 -63 -58 -63
-19 0 -62 4 -95 9 -74 12 -132 19 -636 81 -41 5 -111 14 -155 20 -44 6 -134
17 -200 25 -66 8 -155 19 -197 25 -175 23 -239 31 -358 45 -69 8 -197 24 -285
35 -88 11 -196 25 -240 31 -44 5 -96 12 -115 14 -71 9 -365 46 -522 65 -161
20 -256 32 -393 50 -38 5 -167 21 -285 35 -118 14 -253 32 -300 40 -47 8 -107
17 -135 19 -27 2 -97 10 -154 17 l-104 13 40 36 c23 19 121 109 219 200 97 91
207 192 244 225 36 33 234 215 440 405 460 425 510 470 521 470 5 0 9 -80 9
-179 0 -146 3 -181 15 -191 9 -8 160 -27 392 -50 l378 -38 21 21 c11 12 140
125 287 251 146 126 268 234 271 241 3 8 21 11 53 8 26 -2 136 -10 243 -19z
m3120 -251 c0 -83 -1 -85 -18 -70 -10 10 -23 17 -28 17 -5 0 -85 21 -178 47
-131 37 -163 49 -145 55 19 6 180 23 352 37 15 1 17 -9 17 -86z m-304 -113
c96 -34 249 -70 296 -71 40 0 46 -4 93 -61 28 -34 68 -87 91 -117 97 -132 404
-384 550 -453 34 -16 101 -36 150 -44 270 -47 440 -102 511 -162 53 -46 80
-131 51 -160 -7 -7 -43 -12 -93 -12 -75 0 -86 -3 -122 -29 -41 -30 -83 -100
-83 -139 0 -18 -6 -22 -32 -22 -44 0 -125 -40 -167 -81 -81 -80 -105 -211 -56
-296 30 -50 68 -73 123 -73 56 0 103 22 145 69 46 52 58 74 73 144 15 72 9
120 -22 176 -38 69 -29 125 30 181 23 20 40 25 114 30 106 8 118 13 132 55 39
118 -87 233 -323 295 -100 26 -108 37 -15 21 98 -16 406 -34 473 -26 114 12
202 75 212 152 4 32 0 44 -22 71 -62 74 -152 116 -311 148 l-87 17 7 101 c4
55 9 102 11 104 4 4 559 -44 627 -54 31 -5 37 -10 42 -38 12 -64 88 -118 222
-156 124 -36 153 -68 96 -108 -32 -24 -85 -38 -167 -47 -77 -9 -206 -40 -242
-59 -63 -32 -93 -86 -93 -166 0 -119 56 -172 197 -185 145 -13 192 -26 239
-68 43 -37 65 -84 56 -118 -3 -13 -22 -17 -90 -21 -94 -6 -157 -28 -205 -72
-39 -37 -48 -67 -40 -151 l6 -75 -33 0 c-29 0 -32 2 -27 26 5 26 -14 54 -36
54 -7 0 -18 9 -25 20 -11 18 -10 20 17 20 69 0 106 37 50 50 -23 6 -22 7 9 13
33 7 43 24 18 33 -8 3 -37 1 -65 -4 -46 -8 -51 -8 -45 7 26 60 37 100 31 114
-11 30 -36 7 -74 -70 -32 -65 -38 -72 -46 -55 -5 11 -24 28 -42 37 -72 39
-197 -5 -260 -92 l-30 -42 -89 6 c-82 6 -88 5 -84 -13 2 -11 20 -25 47 -35
l45 -16 -44 -15 c-24 -8 -46 -20 -48 -26 -5 -15 46 -35 75 -29 19 3 21 1 12
-14 -13 -25 13 -74 42 -82 35 -9 58 10 65 52 10 64 12 65 103 41 93 -24 127
-19 181 27 22 18 31 21 35 11 2 -7 9 -26 15 -42 9 -24 8 -27 -5 -22 -9 3 -31
0 -49 -8 -58 -24 -79 -104 -49 -182 5 -13 3 -15 -8 -9 -7 5 -27 8 -43 7 -25
-2 -27 0 -16 13 21 25 3 30 -37 11 -23 -11 -32 -20 -25 -25 7 -4 4 -11 -11
-20 -20 -13 -21 -13 -8 2 14 18 5 22 -17 9 -10 -7 -9 -17 3 -51 15 -43 10 -45
-27 -13 -14 12 -35 14 -103 9 -70 -5 -92 -3 -120 11 -19 9 -35 22 -35 27 0 6
-23 21 -51 34 -59 28 -60 38 -1 14 50 -19 60 -13 44 30 -11 31 -9 30 33 -16
44 -48 44 -48 74 -32 41 21 83 19 114 -5 32 -25 47 -25 47 0 0 50 -116 78
-174 42 l-30 -18 -53 55 c-29 30 -55 52 -58 49 -4 -3 3 -24 15 -47 16 -33 18
-41 6 -41 -8 0 -17 4 -20 9 -10 15 -67 19 -73 5 -7 -18 14 -52 37 -59 36 -12
21 -25 -29 -25 -54 0 -72 -13 -48 -37 17 -18 41 -20 125 -10 51 7 62 5 62 -7
0 -22 29 -27 127 -25 81 3 91 1 127 -24 27 -19 43 -24 50 -17 15 15 46 12 46
-5 0 -17 41 -20 70 -5 14 8 19 5 23 -11 8 -29 38 -21 55 14 7 15 14 46 15 70
2 40 4 43 46 59 69 27 83 45 79 98 -3 25 -8 53 -12 63 -6 12 -4 17 8 17 9 0
34 9 56 20 48 25 60 25 60 3 0 -18 32 -151 45 -188 22 -63 30 -76 65 -99 21
-13 64 -32 95 -41 97 -29 315 -10 315 27 0 4 10 30 22 57 19 45 24 49 48 44
19 -3 53 8 121 42 161 80 192 113 170 184 -24 82 -106 122 -175 86 -16 -9 -31
-13 -33 -11 -2 2 1 22 7 43 11 35 10 45 -9 81 -26 51 -95 105 -156 122 -36 10
-47 18 -52 39 -12 52 -57 127 -109 184 -35 38 -54 67 -54 83 0 42 27 80 77
110 63 37 160 130 184 176 24 47 24 111 0 164 -20 44 -45 64 -134 110 -173 87
-106 123 158 84 33 -5 86 -12 118 -15 l57 -6 0 -274 c0 -245 2 -275 18 -294
16 -20 39 -24 257 -46 132 -14 283 -29 335 -34 162 -18 190 -15 225 21 17 17
55 49 85 71 30 22 91 74 135 116 69 65 187 168 285 248 l26 22 235 -30 c278
-35 330 -42 559 -68 289 -34 357 -41 404 -41 27 0 46 -5 46 -11 0 -12 -9 -21
-165 -169 -232 -220 -523 -497 -765 -730 -146 -140 -356 -340 -465 -445 -110
-104 -229 -218 -265 -252 l-65 -62 -75 9 c-41 5 -106 11 -145 14 -141 10 -340
34 -540 66 -121 19 -158 24 -455 60 -91 11 -325 41 -520 66 -459 58 -482 61
-630 79 -69 8 -161 19 -205 25 -44 6 -114 15 -155 20 -41 5 -167 21 -280 35
-226 28 -246 31 -569 71 l-223 27 5 56 c7 76 33 137 70 163 35 25 34 26 332
-48 124 -31 199 -45 216 -41 15 4 35 21 46 39 42 72 213 278 351 423 46 50 96
102 110 117 27 30 63 169 54 214 -6 34 -22 40 -148 58 -60 9 -154 23 -209 31
-55 9 -131 20 -170 26 -38 6 -95 14 -125 19 -388 60 -685 106 -820 126 -91 13
-175 28 -187 33 -15 7 -23 22 -28 53 -4 24 -27 108 -52 187 -24 79 -42 145
-40 147 10 10 117 -117 189 -226 80 -120 109 -148 121 -116 3 8 -27 84 -68
168 -72 151 -125 273 -125 290 0 17 43 -15 148 -110 234 -212 332 -271 332
-201 0 46 -52 116 -270 362 -23 26 -40 47 -37 47 2 0 30 -9 63 -20z m600 -80
c71 -5 233 -19 359 -30 127 -11 292 -25 368 -32 l137 -12 0 -102 0 -103 -57
-6 c-202 -22 -306 -57 -364 -123 -34 -38 -33 -66 2 -111 33 -42 125 -94 194
-112 l30 -7 -30 -1 c-80 -1 -204 45 -296 111 -237 171 -339 262 -484 438 -99
119 -97 114 -38 106 27 -3 108 -11 179 -16z m-16 -929 c0 -13 -22 -27 -54 -35
-16 -4 -41 -20 -57 -36 -25 -24 -29 -36 -29 -83 0 -31 3 -62 6 -70 9 -24 45
-8 99 45 61 59 154 108 206 108 21 0 40 -4 43 -9 9 -13 -25 -36 -74 -50 -94
-27 -170 -86 -170 -132 0 -23 -3 -23 73 2 82 27 254 23 225 -6 -3 -3 -43 -15
-89 -26 -46 -10 -109 -29 -139 -41 -113 -45 -130 -71 -50 -82 89 -12 104 -27
20 -21 -95 7 -172 -12 -260 -65 -55 -32 -71 -47 -93 -92 -40 -79 -50 -159 -42
-336 6 -146 5 -153 -12 -148 -10 3 -48 15 -84 26 -37 11 -71 26 -76 33 -6 6
-16 41 -22 77 -7 36 -15 75 -18 87 -4 18 -1 21 16 16 12 -3 21 -12 21 -21 0
-34 9 -2 24 84 20 119 78 307 122 400 31 66 41 77 83 98 64 33 111 87 111 129
0 18 3 42 6 55 8 28 72 67 144 86 67 18 70 18 70 7z m-594 -477 c44 -8 84 -17
90 -19 14 -4 -50 -260 -65 -259 -6 1 -21 2 -33 3 -20 1 -26 11 -40 69 -10 37
-26 99 -37 137 -11 39 -21 73 -21 78 0 10 18 9 106 -9z m-291 -331 c41 -19 58
-33 80 -66 l18 -27 -52 -50 c-47 -45 -52 -54 -49 -87 3 -33 7 -38 38 -46 73
-18 126 -41 154 -68 24 -22 30 -37 34 -83 6 -78 -17 -134 -77 -188 -76 -69
-208 -100 -245 -59 -19 21 -71 216 -81 306 -4 33 -14 98 -22 145 -31 179 -32
174 28 212 59 37 111 41 174 11z m-470 -82 c50 -22 73 -47 57 -63 -6 -6 -46
-17 -89 -24 -95 -17 -118 -37 -110 -99 7 -46 36 -75 77 -75 42 0 60 -10 60
-31 0 -14 -19 -28 -67 -52 l-68 -32 3 -60 c5 -83 15 -92 95 -77 77 14 137 15
137 3 0 -5 -16 -23 -36 -39 -38 -31 -136 -62 -198 -62 l-34 0 -6 73 c-3 39 -8
170 -11 290 -6 266 -6 267 89 267 37 0 77 -7 101 -19z m-271 -63 c47 -21 46
-56 -5 -216 -41 -127 -105 -262 -137 -290 -54 -47 -116 -6 -149 96 -20 62 -42
68 -66 17 -33 -69 -99 -125 -147 -125 -12 0 -31 10 -41 23 -30 33 -76 134 -94
202 -20 77 -20 213 0 239 8 11 17 18 19 15 14 -15 48 -97 60 -144 30 -114 59
-144 102 -105 14 14 32 38 40 53 24 45 47 67 72 67 36 0 102 -38 112 -65 7
-17 17 -25 34 -25 28 0 52 46 80 152 18 68 52 118 80 118 8 0 26 -5 40 -12z
m1146 -148 c36 -11 84 -20 108 -20 l42 0 0 -62 c0 -79 -10 -139 -21 -132 -5 3
-6 -2 -3 -11 9 -23 -31 -154 -78 -257 -21 -46 -37 -68 -48 -68 -15 0 -18 14
-23 93 -4 50 -13 151 -21 222 -8 72 -18 158 -22 193 -4 34 -5 62 -3 62 2 0 33
-9 69 -20z"/>
<path d="M6206 7174 c-3 -9 -6 -58 -6 -110 0 -77 3 -94 15 -94 10 0 15 10 15
29 0 24 5 31 30 36 66 14 92 96 44 134 -32 25 -89 28 -98 5z"/>
<path d="M6256 6834 c-3 -9 -6 -56 -6 -105 0 -79 2 -89 18 -89 18 0 55 34 85
80 l17 24 0 -47 c0 -35 4 -47 15 -47 11 0 15 11 15 39 0 58 -12 131 -21 131
-5 0 -20 -21 -34 -47 -28 -54 -49 -83 -59 -83 -4 0 -4 25 -1 55 8 57 1 105
-14 105 -5 0 -12 -7 -15 -16z"/>
<path d="M6132 3373 c-17 -7 -42 -57 -42 -86 0 -27 30 -62 60 -72 36 -11 77
13 94 56 22 53 20 64 -10 88 -25 20 -72 26 -102 14z"/>
<path d="M10147 8156 c-95 -26 -189 -112 -248 -226 -69 -135 14 -313 186 -400
62 -31 79 -35 145 -35 183 1 311 89 341 233 40 195 -67 360 -273 423 -73 22
-86 22 -151 5z m-128 -336 l48 0 6 -47 c4 -27 9 -57 12 -68 4 -15 -4 -26 -29
-42 l-34 -21 -35 51 c-54 84 -69 148 -30 133 8 -3 36 -6 62 -6z"/>
<!-- </> -->
<path d="M7452 7918 c-7 -7 -12 -26 -12 -42 -1 -87 -59 -235 -121 -309 -40
-49 -67 -47 -93 8 -22 47 -14 65 33 78 34 8 38 29 7 35 -30 6 -74 -19 -86 -49
-11 -24 -10 -37 4 -74 51 -131 147 -102 239 72 67 128 89 341 29 281z"/>
<path d="M8783 7834 c-13 -33 16 -200 40 -231 13 -18 46 -16 53 2 4 8 -2 44
-11 80 -10 36 -16 68 -12 71 3 3 22 -10 44 -28 61 -54 70 -59 87 -52 25 9 19
46 -11 71 -120 101 -175 126 -190 87z"/>
<path d="M9125 7747 c-170 -125 -347 -271 -356 -294 -12 -33 -13 -33 21 -33
22 0 60 24 156 101 70 56 165 128 211 161 83 60 110 89 98 108 -14 23 -63 6
-130 -43z"/>
<path d="M9116 7593 c-3 -10 3 -47 14 -82 l19 -63 -42 6 c-23 4 -58 9 -78 12
-37 6 -55 -9 -40 -34 10 -16 125 -44 168 -40 55 5 60 23 33 114 -12 44 -27 85
-33 92 -14 17 -35 15 -41 -5z"/>
</g>
</svg>
